<svg width="149" height="24" viewBox="0 0 149 24" fill="none" xmlns="http://www.w3.org/2000/svg">
<path fill-rule="evenodd" clip-rule="evenodd" d="M92.183 1.60497C96.5863 1.86902 100.465 6.22194 100.465 10.9945C100.465 16.2912 96.1476 20.5852 90.8219 20.5852H82.2616C81.7453 20.5852 81.2578 20.8192 80.9375 21.2219C80.5919 21.6563 80.0387 22.3523 79.1547 23.465C78.9692 23.6984 78.674 23.8254 78.3785 23.7793C73.7696 23.0588 70.2446 19.0917 70.2445 14.3056C70.2446 9.00891 74.562 4.71495 79.8877 4.71494H88.463C88.972 4.71492 89.4531 4.48679 89.7703 4.09084C90.1071 3.67035 90.6438 2.99793 91.4983 1.92281C91.6636 1.71486 91.9169 1.58903 92.183 1.60497ZM90.8219 4.79131C90.3839 4.79131 89.9702 4.99216 89.7005 5.33544L88.3989 6.992C87.8485 7.69269 87.0044 8.10235 86.1103 8.10237H79.8877C76.443 8.10238 73.6504 10.8797 73.6503 14.3056C73.6504 17.7315 76.147 20.5088 79.5916 20.5088C80.0297 20.5088 80.4434 20.308 80.713 19.9647L82.0144 18.3081C82.5648 17.6074 83.4092 17.1978 84.3032 17.1978H90.8219L90.8622 17.1975C94.2883 17.1759 97.059 14.407 97.059 10.9945C97.0589 7.5687 94.2665 4.79136 90.8219 4.79131Z" fill="white" style="fill:white;fill-opacity:1;"/>
<path d="M7.92811 5.57768H12.241V8.94197H7.92811V17.1525C7.92811 18.9582 9.3999 20.4221 11.2155 20.4222H13.3192V23.7865H11.2155C7.53171 23.7864 4.54531 20.8162 4.54531 17.1525V8.94197H2.99134C2.88012 8.94893 2.76793 8.95251 2.65494 8.95251H0V5.58822H1.24732V5.57768H2.85533C3.80378 5.47796 4.54526 4.67877 4.54531 3.70434V0.0898438H7.92811V5.57768Z" fill="white" style="fill:white;fill-opacity:1;"/>
<path d="M63.9219 5.57768H68.2347V8.94197H63.9219V17.1525C63.9219 18.9582 65.3939 20.4222 67.2095 20.4222H69.3129V23.7865H67.2095C63.5257 23.7865 60.5393 20.8162 60.5393 17.1525V8.94197H58.9853C58.8741 8.94894 58.7617 8.95251 58.6487 8.95251H55.9937V5.58822H57.2411V5.57768H58.8493C59.7977 5.47792 60.5393 4.67874 60.5393 3.70434V0.0898438H63.9219V5.57768Z" fill="white" style="fill:white;fill-opacity:1;"/>
<path fill-rule="evenodd" clip-rule="evenodd" d="M23.7952 4.71571C27.2929 4.71571 30.3506 6.58143 32.0201 9.35881L32.0028 9.36446C32.8591 10.7908 33.3512 12.4586 33.3512 14.2405V15.9226H17.8345C18.5705 18.5074 20.9605 20.4011 23.7952 20.4011C25.244 20.4011 26.5775 19.9069 27.6336 19.0765C28.329 18.5298 29.2331 18.2196 30.0765 18.491L32.0144 19.1146L32.0222 19.1189C30.3531 21.898 27.2942 23.7654 23.7952 23.7654C23.7881 23.7654 23.781 23.7654 23.774 23.7654C18.4848 23.7653 14.197 19.5009 14.197 14.2405C14.197 8.98012 18.4847 4.71574 23.774 4.71571H23.7952ZM23.7856 8.07974C20.9551 8.084 18.5697 9.9764 17.8345 12.5583H29.7347C28.9996 9.97706 26.6152 8.08495 23.7856 8.07974Z" fill="white" style="fill:white;fill-opacity:1;"/>
<path d="M45.3391 4.71571C48.8367 4.71571 51.8945 6.58144 53.564 9.35881L51.6152 9.986C50.7726 10.2571 49.8693 9.94751 49.1741 9.40175C48.1185 8.57302 46.7863 8.07974 45.3391 8.07974C41.918 8.07977 39.1446 10.8381 39.1446 14.2405C39.1447 17.6429 41.918 20.401 45.3391 20.4011C46.7879 20.4011 48.1213 19.9069 49.1775 19.0765C49.8728 18.5298 50.777 18.2196 51.6204 18.491L53.5583 19.1146L53.5661 19.1189C51.897 21.898 48.8381 23.7654 45.3391 23.7654C40.0498 23.7653 35.7621 19.5009 35.7621 14.2405C35.7621 8.98012 40.0498 4.71574 45.3391 4.71571Z" fill="white" style="fill:white;fill-opacity:1;"/>
<path d="M106.016 3.86403C107.602 2.41325 109.775 1.60371 112.19 1.60368C117.479 1.60368 121.767 5.86811 121.767 11.1285V20.6955H118.384V11.1285C118.384 7.7261 115.611 4.96797 112.19 4.96797C108.769 4.96803 105.995 7.72614 105.995 11.1285V20.6955H102.613V20.6744H102.528V1.60368H106.016V3.86403Z" fill="white" style="fill:white;fill-opacity:1;"/>
<path d="M128.448 20.6744H125.065V1.64586H128.448V20.6744Z" fill="white" style="fill:white;fill-opacity:1;"/>
<path d="M140.773 1.60368C144.271 1.60372 147.329 3.46947 148.998 6.24678L147.049 6.87397C146.207 7.14512 145.303 6.83576 144.608 6.28998C143.552 5.46127 142.22 4.968 140.773 4.96797C137.352 4.96798 134.579 7.72611 134.579 11.1285C134.579 14.531 137.352 17.2893 140.773 17.2893C142.222 17.2893 143.556 16.7951 144.612 15.9647C145.307 15.418 146.211 15.1076 147.054 15.3789L148.992 16.0025L149 16.0072C147.331 18.7862 144.272 20.6536 140.773 20.6536C135.484 20.6536 131.196 16.3889 131.196 11.1285C131.196 5.86811 135.484 1.60369 140.773 1.60368Z" fill="white" style="fill:white;fill-opacity:1;"/>
</svg>
