<svg xmlns="http://www.w3.org/2000/svg" viewBox="0 0 2900 2710">
    <path d="M0 1355 l0 -1355 1448 2 1447 3 3 1353 2 1352 -1450 0 -1450 0 0 -1355z" fill="#000000"/>
    <path d="M2338 933 c27 -43 92 -78 148 -79 31 0 35 -2 19 -9 -11 -5 -31 -9 -43
             -9 -38 -1 -91 -31 -118 -66 -13 -17 -30 -61 -38 -96 -14 -62 -14 -63 -15 -21
             -1 23 -7 57 -15 75 -15 38 -77 95 -109 101 -12 3 -40 8 -62 12 l-40 8 50 6
             c110 13 173 83 176 192 1 42 1 42 13 -17 6 -34 22 -77 34 -97z" fill="#ffffff" transform="translate(0, -200)"/>
</svg>