<svg xmlns="http://www.w3.org/2000/svg" width="250" height="250" viewBox="0 0 250 250" fill="none">
  <path d="M 124.67,0 H 124.33 C 120.38,30.98 112.67,65.91 95.98,93.59 C 90.09,100.68 71.75,112.91 0,124.89 V 125.11 C 34.99,129.79 65.01,136.01 89.98,152.74 C 95.03,155.67 98.88,163.08 102.14,169.02 C 113.73,188.75 120.61,219.95 123.98,250 H 124.67 C 128.96,217.19 136.89,184.16 154.41,156.93 C 160.19,150.98 181.69,133.91 250,124.91 V 124.44 C 216.02,120.41 182.04,113.73 160.08,100.12 C 155.73,97.19 155.04,96.49 152.81,93.37 C 138.26,71.31 128.36,38.41 124.67,0 Z M 124.67,83.09 C 127.01,104.81 138.26,121.76 165.79,124.91 C 141.75,128.03 127.01,141.75 124.67,166.91 C 121.98,144.74 110.73,129.11 84.21,124.91 C 107.21,121.65 121.64,107.47 124.67,83.09 Z" fill="white"/>
</svg>
