<svg xmlns="http://www.w3.org/2000/svg" viewBox="0 0 290 56" fill="none">
  <g transform="translate(0, 0) scale(0.28)">
    <path d="m97.81 2.75h-0.31c-2.93 19.67-6.74 44.44-16.54 63.48-1.99 3.94-4.34 7.68-7.04 11.39-14.9 12.15-36.1 17.09-64.76 22.29l-6.34 0.57v0.58c22.65 3.83 45.4 7.75 61.06 16.56 4.19 2.09 7.94 4.54 11.66 7.39 12.57 16.34 19.23 40.18 22.06 73.28h0.51c4.1-27.37 9.81-53.48 23.12-73.88 13.99-11.28 32.69-17.04 73.58-23.35v-0.58c-25.15-3.3-49.62-7.77-72.66-21.35-13.87-12.37-19.74-40.02-24.34-76.38zm-0.11 67.02c2.09 16.16 10.89 27.72 31.47 30.88-18.96 3.66-28.97 13.48-31.26 31.83-2.39-16.62-10.99-27.27-29.94-31.67 16.52-3.06 26.81-13.2 29.73-31.04z" fill="#1a1a1a"/>
  </g>
  <text x="70" y="37" font-family="Geist, -apple-system, BlinkMacSystemFont, sans-serif" font-size="22" font-weight="700" letter-spacing="0.38em" fill="#1a1a1a" opacity="0.88">NORTH STAR</text>
</svg>
